<svg xmlns="http://www.w3.org/2000/svg" width="51.282" height="18.612" viewBox="0 0 51.282 18.612"><path style="fill: #e9e9e9" d="M2.646-8.334a.24.24,0,0,1-.126.207.887.887,0,0,1-.279.117,2.831,2.831,0,0,1-.3.054q-.144.018-.18.018a1.464,1.464,0,0,1-.747-.216,2.1,2.1,0,0,1-.675-.684Q.306-8.892.234-8.982a.276.276,0,0,1-.072-.126q0-.09.135-.162T.6-9.414a2.049,2.049,0,0,1,.324-.108,1.123,1.123,0,0,1,.207-.036,1.543,1.543,0,0,1,.711.18,1.3,1.3,0,0,1,.567.666q.036.054.135.189A.427.427,0,0,1,2.646-8.334ZM4.482-2.88a5.3,5.3,0,0,1-.2.9,3.508,3.508,0,0,1-.4.873,2.243,2.243,0,0,1-.657.666A1.728,1.728,0,0,1,2.25-.18a1.675,1.675,0,0,1-.918-.306,1.622,1.622,0,0,1-.639-.846A3.232,3.232,0,0,1,.522-2.34q0-.144.018-.432t.018-.7v-1.98q0-.144-.009-.306A1.634,1.634,0,0,0,.5-6.066a.808.808,0,0,0-.063-.162A.351.351,0,0,1,.4-6.354a.134.134,0,0,1,.09-.117.7.7,0,0,1,.2-.063,1.26,1.26,0,0,1,.207-.018h.1q.054,0,.252.009a2.1,2.1,0,0,1,.414.063,1.19,1.19,0,0,1,.387.171.38.38,0,0,1,.171.333q.018.054-.063.2a1.881,1.881,0,0,0-.153.5q-.018.144-.036.261t-.036.261q-.018.144-.036.351t-.036.531v1.08q0,.288.018.585a2.84,2.84,0,0,0,.081.54.892.892,0,0,0,.207.4.5.5,0,0,0,.378.153.73.73,0,0,0,.54-.2,3.353,3.353,0,0,0,.306-.342,2,2,0,0,0,.306-.675q.108-.4.2-.837l.036-.18a.3.3,0,0,1,.324-.27q.27,0,.27.378v.09ZM6.714-3.924a3.585,3.585,0,0,0-.441.837,9.307,9.307,0,0,0-.3.954q-.126.5-.207.99T5.6-.2q-.036.108-.279.144a2.72,2.72,0,0,1-.351.036,3.2,3.2,0,0,1-.531-.036.494.494,0,0,1-.315-.171A.959.959,0,0,1,3.96-.639a6.892,6.892,0,0,1-.09-.747L4.1-6.732q0-.234.252-.234a1.641,1.641,0,0,1,.252.027,2.791,2.791,0,0,1,.342.081,1.2,1.2,0,0,1,.306.135.228.228,0,0,1,.126.189V-2.88a.5.5,0,0,0,.054-.144q.126-.324.306-.8a9.647,9.647,0,0,1,.4-.909A4.22,4.22,0,0,1,6.6-5.472a.662.662,0,0,1,.495-.306.719.719,0,0,1,.495.153.982.982,0,0,1,.261.387,1.713,1.713,0,0,1,.108.5q.018.27.018.522,0,.18-.036.594T7.9-2.376a3.659,3.659,0,0,0,.09.846q.09.378.36.378a.478.478,0,0,0,.36-.18,2.018,2.018,0,0,0,.3-.45,3.482,3.482,0,0,0,.225-.576,2.681,2.681,0,0,0,.108-.576q.018-.342.27-.342a.218.218,0,0,1,.216.108.557.557,0,0,1,.054.252v.036a4.063,4.063,0,0,1-.135.81,3.474,3.474,0,0,1-.342.846,2.152,2.152,0,0,1-.585.666,1.428,1.428,0,0,1-.882.27A.98.98,0,0,1,6.9-.873,5.1,5.1,0,0,1,6.678-2.61Zm7.02,2.808a.809.809,0,0,1-.288.666,1.857,1.857,0,0,1-.657.342,3.542,3.542,0,0,1-.738.135q-.369.027-.531.027A4.413,4.413,0,0,1,10.9,0a4.192,4.192,0,0,1-.72-.171A1.682,1.682,0,0,1,9.585-.5a.693.693,0,0,1-.243-.54.289.289,0,0,1,.153-.279.633.633,0,0,1,.3-.081.633.633,0,0,1,.387.144q.189.144.4.306a3.812,3.812,0,0,0,.459.306A1.14,1.14,0,0,0,11.61-.5,1.1,1.1,0,0,0,12-.6a.353.353,0,0,0,.243-.351.729.729,0,0,0-.207-.486,4.2,4.2,0,0,0-.522-.486q-.315-.252-.675-.522a6.292,6.292,0,0,1-.675-.585,3.046,3.046,0,0,1-.522-.693,1.7,1.7,0,0,1-.207-.828,1.494,1.494,0,0,1,.405-1.062,3.022,3.022,0,0,1,.954-.684,4.816,4.816,0,0,1,1.125-.36,5.219,5.219,0,0,1,.9-.108,1.6,1.6,0,0,1,.612.126.478.478,0,0,1,.306.486,1.617,1.617,0,0,1-.045.315,1.721,1.721,0,0,1-.144.405,1.246,1.246,0,0,1-.261.351.579.579,0,0,1-.414.153.22.22,0,0,1-.144-.063l-.162-.144a1.43,1.43,0,0,0-.189-.144.41.41,0,0,0-.225-.063.991.991,0,0,0-.882.369,1.365,1.365,0,0,0-.252.783,1.093,1.093,0,0,0,.423.756q.423.4.936.792t.936.783A1.066,1.066,0,0,1,13.734-1.116Zm.4-2.142q.018-.918.054-1.872t.072-1.764q0-.144-.288-.2T13.32-7.2a2.838,2.838,0,0,1-.648-.171.4.4,0,0,1-.288-.387q0-.234.468-.27t1.386-.036q.072,0,.1-.216t.036-.549q.009-.333.018-.711t.027-.711a3.767,3.767,0,0,1,.063-.549q.045-.216.117-.216a2.54,2.54,0,0,1,.324.036q.234.036.486.1a2.359,2.359,0,0,1,.441.153q.189.09.189.2l-.2,2.34q0,.108.189.153a2.484,2.484,0,0,0,.486.054q.3.009.63.009a3.52,3.52,0,0,1,.63.054,1.4,1.4,0,0,1,.486.171.386.386,0,0,1,.189.351.34.34,0,0,1-.036.117q-.036.081-.09.081a.18.18,0,0,1-.1-.054.616.616,0,0,0-.333-.054q-.072,0-.4.018t-.684.054q-.36.036-.657.081t-.333.117a2.672,2.672,0,0,0-.045.423q-.027.387-.054,1.017t-.045,1.449q-.018.819-.018,1.719a6.028,6.028,0,0,0,.036.666,3.775,3.775,0,0,0,.108.585,1.32,1.32,0,0,0,.189.423.339.339,0,0,0,.279.162.6.6,0,0,0,.432-.2,1.92,1.92,0,0,0,.36-.54,5.234,5.234,0,0,0,.288-.774q.126-.432.216-.882a1.255,1.255,0,0,1,.126-.387.237.237,0,0,1,.216-.117.346.346,0,0,1,.225.081q.1.081.1.369a.932.932,0,0,1-.018.234q-.054.324-.207.891A6.6,6.6,0,0,1,17.595-.8a3.9,3.9,0,0,1-.639.963,1.161,1.161,0,0,1-.882.414A1.341,1.341,0,0,1,15.228.3a2.162,2.162,0,0,1-.6-.774,4.548,4.548,0,0,1-.369-1.17A7.9,7.9,0,0,1,14.13-3.1ZM24.8-1.962a2.481,2.481,0,0,1-.18.594,3.4,3.4,0,0,1-.369.657,2.311,2.311,0,0,1-.522.531,1.092,1.092,0,0,1-.657.216,1.282,1.282,0,0,1-.945-.414,1.949,1.949,0,0,1-.5-1.17q-.108.288-.252.666a3.519,3.519,0,0,1-.36.7,2.429,2.429,0,0,1-.5.549,1.015,1.015,0,0,1-.657.225A.546.546,0,0,1,19.71.576q-.054-.018-.117-.045a.815.815,0,0,0-.144-.045,1.092,1.092,0,0,0-.225-.018,1.025,1.025,0,0,1-.729-.279,2.03,2.03,0,0,1-.477-.711,4.119,4.119,0,0,1-.261-.945,6.192,6.192,0,0,1-.081-.963,17.183,17.183,0,0,1,.117-2.052A7.817,7.817,0,0,1,18.18-6.2a3.249,3.249,0,0,1,.7-1.188,1.408,1.408,0,0,1,1.044-.441,1.83,1.83,0,0,1,.549.063,2.677,2.677,0,0,1,.351.144q.162.081.351.171a2,2,0,0,0,.531.144,1.291,1.291,0,0,1,.531.513,1.935,1.935,0,0,1,.2.639,3.963,3.963,0,0,1,.027.711,3.69,3.69,0,0,0,.036.729q0,.018.081.054l.189.081a.58.58,0,0,1,.189.126.28.28,0,0,1,.081.207v.072a3.259,3.259,0,0,0-.216.828q-.036.36-.036.864,0,.252.027.549a3.873,3.873,0,0,0,.09.558,1.193,1.193,0,0,0,.189.432.386.386,0,0,0,.324.171.49.49,0,0,0,.387-.216,2.1,2.1,0,0,0,.288-.5,4.885,4.885,0,0,0,.2-.567,3.261,3.261,0,0,0,.1-.432q.036-.216.18-.216a.226.226,0,0,1,.171.1.569.569,0,0,1,.081.351v.135A.8.8,0,0,1,24.8-1.962Zm-3.33-2.916a3.608,3.608,0,0,0-.036-.468,2.215,2.215,0,0,0-.126-.5,1.014,1.014,0,0,0-.27-.4.7.7,0,0,0-.486-.162.955.955,0,0,0-.819.459,3.728,3.728,0,0,0-.5,1.08,6.488,6.488,0,0,0-.234,1.278q-.054.657-.054,1.035,0,.288.027.693a5.905,5.905,0,0,0,.1.765,2.217,2.217,0,0,0,.207.612.4.4,0,0,0,.351.252.914.914,0,0,0,.8-.405,2.986,2.986,0,0,0,.423-1.008,9.149,9.149,0,0,0,.207-1.3q.063-.693.117-1.269a.519.519,0,0,1,.162-.387q.126-.081.126-.117ZM30.24.468a.255.255,0,0,1-.162.252.755.755,0,0,1-.306.072l-.36-.036q-.09,0-.09.108L29.3,1.08q.018.486.018,1.224V3.726q0,.72-.045,1.413a5.7,5.7,0,0,1-.207,1.242,2.27,2.27,0,0,1-.459.882,1.041,1.041,0,0,1-.819.333q-.45,0-.945-.045a2.833,2.833,0,0,1-.9-.225,1.651,1.651,0,0,1-.666-.531,1.549,1.549,0,0,1-.261-.945,5.71,5.71,0,0,1,.135-1.215,6.568,6.568,0,0,1,.387-1.206,7.149,7.149,0,0,1,.6-1.116,6.042,6.042,0,0,1,.765-.945q.216-.216.477-.441t.459-.369V.54q.036-.378.054-.756t.018-.774q-.09.162-.216.441a3.535,3.535,0,0,1-.3.531,2.292,2.292,0,0,1-.387.441.719.719,0,0,1-.486.189A.557.557,0,0,1,26.28.558.7.7,0,0,0,25.974.5a1.63,1.63,0,0,1-.837-.27,1.565,1.565,0,0,1-.522-.648,3.389,3.389,0,0,1-.261-.981,10.14,10.14,0,0,1-.072-1.269,15.972,15.972,0,0,1,.1-1.746,7.824,7.824,0,0,1,.351-1.647,3.512,3.512,0,0,1,.675-1.224,1.369,1.369,0,0,1,1.071-.477.483.483,0,0,1,.189.054l.252.117.27.126a1.269,1.269,0,0,0,.207.081,4.874,4.874,0,0,1,.666.18,1.8,1.8,0,0,1,.522.279,1.182,1.182,0,0,1,.342.45,1.683,1.683,0,0,1,.126.693,2.774,2.774,0,0,1-.045.522,3.235,3.235,0,0,0-.045.594.2.2,0,0,0,.108.2,1.28,1.28,0,0,0,.243.09,1.92,1.92,0,0,1,.243.081.183.183,0,0,1,.108.189.523.523,0,0,1-.081.171q-.081.135-.1.171a2.1,2.1,0,0,0-.09.459q-.036.315-.054.684t-.027.756q-.009.387-.009.693v.621q0,.387.018.639h.072a.3.3,0,0,0,.072-.009A.246.246,0,0,1,29.52.072a1.416,1.416,0,0,1,.441.1Q30.24.27,30.24.468Zm-2.3-5.562a3.218,3.218,0,0,0-.036-.45,2.066,2.066,0,0,0-.126-.477.994.994,0,0,0-.261-.378.611.611,0,0,0-.423-.153.935.935,0,0,0-.639.27,2.311,2.311,0,0,0-.522.765,5.342,5.342,0,0,0-.36,1.206A8.687,8.687,0,0,0,25.434-2.7q0,.378.027.783a5.9,5.9,0,0,0,.09.729,1.585,1.585,0,0,0,.2.54.4.4,0,0,0,.351.216.869.869,0,0,0,.666-.324,2.676,2.676,0,0,0,.477-.8,5.522,5.522,0,0,0,.288-.99,6.4,6.4,0,0,0,.117-.891,5.579,5.579,0,0,1,.054-.711.788.788,0,0,1,.072-.243.722.722,0,0,0,.135-.342A2.685,2.685,0,0,0,27.936-5.094ZM27.864,1.17a3.267,3.267,0,0,0-.783.81,6.51,6.51,0,0,0-.639,1.134,7.4,7.4,0,0,0-.423,1.242,4.855,4.855,0,0,0-.153,1.134,2.424,2.424,0,0,0,.036.4,1.758,1.758,0,0,0,.117.405.819.819,0,0,0,.234.315.562.562,0,0,0,.369.126.751.751,0,0,0,.621-.315,2.365,2.365,0,0,0,.378-.747,4.426,4.426,0,0,0,.18-.882q.045-.45.045-.72V3.906q0-.108.009-.414t.009-.855Zm7.758-3.708a5.042,5.042,0,0,1-.081.6,5.173,5.173,0,0,1-.288,1.008,3.3,3.3,0,0,1-.558.945A1.117,1.117,0,0,1,33.8.432a1.14,1.14,0,0,1-.918-.405,2.8,2.8,0,0,1-.522-.972,5.484,5.484,0,0,1-.234-1.188q-.054-.621-.054-1.035a8.4,8.4,0,0,1,.054-.945q.054-.477.072-.945a.17.17,0,0,0-.144-.18,1.116,1.116,0,0,0-.27-.036.427.427,0,0,0-.27.054.267.267,0,0,0-.072.126l-.072.576q-.072.576-.153,1.107t-.18.936a2.654,2.654,0,0,1-.234.648q-.135.243-.315.243h-.018a.268.268,0,0,1-.135-.036q-.063-.036-.063-.18a.985.985,0,0,1,.036-.216,7.961,7.961,0,0,0,.18-1.044q.036-.414.054-.738v-.126q0-.09.009-.216t.009-.306v-.882a3.323,3.323,0,0,0-.036-.468l-.054-1.062a.275.275,0,0,1,.09-.2.892.892,0,0,1,.234-.162,1.323,1.323,0,0,1,.306-.108,1.345,1.345,0,0,1,.288-.036q.306,0,.306.4v.09l-.018.4v.108q0,.126.054.153a1.11,1.11,0,0,0,.216.063H32q.144.018.468.036a5.945,5.945,0,0,1,.648.072,2.1,2.1,0,0,1,.567.171.364.364,0,0,1,.243.333.874.874,0,0,1-.036.207,2.373,2.373,0,0,1-.09.27q-.054.135-.09.243a.589.589,0,0,0-.036.144,10.228,10.228,0,0,0-.324,2.592q0,.108.018.4a5.334,5.334,0,0,0,.072.594,2.2,2.2,0,0,0,.162.54q.108.234.27.234a.6.6,0,0,0,.486-.333,3.873,3.873,0,0,0,.378-.774A6.85,6.85,0,0,0,35-2.322q.1-.45.135-.666.036-.2.117-.243a.317.317,0,0,1,.153-.045q.252,0,.252.324,0,.036-.009.189A1.342,1.342,0,0,1,35.622-2.538Zm6.606.576a2.481,2.481,0,0,1-.18.594,3.4,3.4,0,0,1-.369.657,2.31,2.31,0,0,1-.522.531A1.092,1.092,0,0,1,40.5.036a1.282,1.282,0,0,1-.945-.414,1.949,1.949,0,0,1-.495-1.17q-.108.288-.252.666a3.519,3.519,0,0,1-.36.7,2.429,2.429,0,0,1-.495.549A1.015,1.015,0,0,1,37.3.594a.546.546,0,0,1-.162-.018Q37.08.558,37.017.531a.815.815,0,0,0-.144-.045,1.092,1.092,0,0,0-.225-.018,1.025,1.025,0,0,1-.729-.279,2.03,2.03,0,0,1-.477-.711,4.12,4.12,0,0,1-.261-.945A6.192,6.192,0,0,1,35.1-2.43a17.183,17.183,0,0,1,.117-2.052A7.816,7.816,0,0,1,35.6-6.2a3.249,3.249,0,0,1,.7-1.188A1.408,1.408,0,0,1,37.35-7.83a1.83,1.83,0,0,1,.549.063,2.677,2.677,0,0,1,.351.144q.162.081.351.171a2,2,0,0,0,.531.144,1.291,1.291,0,0,1,.531.513,1.935,1.935,0,0,1,.2.639,3.963,3.963,0,0,1,.027.711,3.691,3.691,0,0,0,.036.729q0,.018.081.054l.189.081a.58.58,0,0,1,.189.126.28.28,0,0,1,.081.207v.072a3.259,3.259,0,0,0-.216.828q-.036.36-.036.864,0,.252.027.549a3.873,3.873,0,0,0,.09.558,1.193,1.193,0,0,0,.189.432.386.386,0,0,0,.324.171.49.49,0,0,0,.387-.216,2.1,2.1,0,0,0,.288-.5,4.884,4.884,0,0,0,.2-.567,3.261,3.261,0,0,0,.1-.432q.036-.216.18-.216a.226.226,0,0,1,.171.1.569.569,0,0,1,.081.351v.135A.8.8,0,0,1,42.228-1.962ZM38.9-4.878a3.608,3.608,0,0,0-.036-.468,2.214,2.214,0,0,0-.126-.5,1.014,1.014,0,0,0-.27-.4.7.7,0,0,0-.486-.162.955.955,0,0,0-.819.459,3.728,3.728,0,0,0-.5,1.08,6.488,6.488,0,0,0-.234,1.278q-.054.657-.054,1.035,0,.288.027.693a5.9,5.9,0,0,0,.1.765,2.216,2.216,0,0,0,.207.612.4.4,0,0,0,.351.252.914.914,0,0,0,.8-.405,2.986,2.986,0,0,0,.423-1.008,9.149,9.149,0,0,0,.207-1.3q.063-.693.117-1.269a.519.519,0,0,1,.162-.387q.126-.081.126-.117Zm8.838.45q-.252.486-.468,1.026t-.324.846q-.018.09-.1.378l-.18.639q-.1.351-.171.693a2.829,2.829,0,0,0-.072.558q0,.09-.162.162a1.025,1.025,0,0,1-.414.072,1.525,1.525,0,0,1-.63-.108.714.714,0,0,1-.351-.351,1.765,1.765,0,0,1-.144-.639q-.027-.4-.027-.954v-1.35q0-.144-.009-.288t-.063-.18q-.09.036-.225.468A9.474,9.474,0,0,0,44.145-2.4q-.117.621-.207,1.3a9.484,9.484,0,0,0-.09,1.224.219.219,0,0,1-.207.234A2.689,2.689,0,0,1,43.182.4a1.8,1.8,0,0,1-.243-.027Q42.768.342,42.6.306a1.613,1.613,0,0,1-.315-.1A.314.314,0,0,1,42.1.054a3.087,3.087,0,0,1-.135-.774q-.045-.54-.045-1.674,0-.666.027-1.548t.063-2.07q0-.162-.018-.423t-.018-.3a.152.152,0,0,1,.117-.171.859.859,0,0,1,.171-.027,1.94,1.94,0,0,1,.3.027q.171.027.342.063t.315.081a.856.856,0,0,1,.2.081V-2.34q.09-.36.207-.837t.27-.945a8.39,8.39,0,0,1,.333-.864,1.767,1.767,0,0,1,.378-.576.623.623,0,0,1,.27-.081A2.5,2.5,0,0,1,45.2-5.67a1.187,1.187,0,0,1,.225.027,1.316,1.316,0,0,1,.261.081.934.934,0,0,1,.225.135.307.307,0,0,1,.117.189V-2.16q0,.108.036.108a1.648,1.648,0,0,0,.207-.486l.405-1.152q.234-.666.5-1.368a11.166,11.166,0,0,1,.486-1.116q.036-.072.243-.081t.369-.009a1.047,1.047,0,0,1,.342.081,1.924,1.924,0,0,1,.423.225,1.873,1.873,0,0,1,.36.324.577.577,0,0,1,.153.378.716.716,0,0,1-.108.207A1.036,1.036,0,0,0,49.3-4.7a6.584,6.584,0,0,0-.171.99q-.045.486-.045,1.242,0,.324.027.648a3.876,3.876,0,0,0,.09.585,1.322,1.322,0,0,0,.171.423.331.331,0,0,0,.288.162.67.67,0,0,0,.45-.171,1.457,1.457,0,0,0,.342-.459,3.8,3.8,0,0,0,.252-.675q.108-.387.18-.8.09-.432.324-.432a.208.208,0,0,1,.189.072.728.728,0,0,1,.045.324.725.725,0,0,1-.018.2,4.4,4.4,0,0,1-.153.729,5.576,5.576,0,0,1-.378.99,3.323,3.323,0,0,1-.6.864,1.125,1.125,0,0,1-.828.369A1.525,1.525,0,0,1,48.546.1a1.713,1.713,0,0,1-.558-.7,3.754,3.754,0,0,1-.279-1.017,8.659,8.659,0,0,1-.081-1.206v-.126Z" transform="translate(-0.162 11.016)" fill="#fff"/></svg>